<svg width="15" height="15" viewBox="0 0 15 15" fill="none" xmlns="http://www.w3.org/2000/svg">
<path d="M10.4013 8.46846C10.4031 8.46912 10.4048 8.46974 10.4065 8.47034L10.4066 8.47037C10.4106 8.47179 10.4144 8.47313 10.4181 8.4749L10.4184 8.47501C11.3087 8.83095 12.1176 9.34639 12.8005 9.99287L12.8005 9.99288C13.4854 10.6375 14.0311 11.4018 14.4071 12.2432C14.7778 13.0699 14.9751 13.9455 14.9951 14.8456L14.9951 14.8456C14.9956 14.865 14.992 14.8844 14.9845 14.9025C14.9769 14.9206 14.9657 14.9371 14.9512 14.951C14.9368 14.965 14.9196 14.9761 14.9006 14.9836C14.8815 14.9912 14.8611 14.9951 14.8404 14.9951H13.6436C13.5582 14.9951 13.4908 14.9329 13.4889 14.8529L13.4889 14.8529C13.449 13.3968 12.83 12.0331 11.736 10.9996C10.6041 9.93024 9.10093 9.34185 7.5 9.34185C5.89907 9.34185 4.39587 9.93024 3.26396 10.9996C2.16997 12.0331 1.55105 13.3968 1.51112 14.8529C1.50919 14.9311 1.44177 14.9951 1.35642 14.9951H0.159623C0.13894 14.9951 0.118472 14.9912 0.0994271 14.9836C0.080382 14.9761 0.0631538 14.965 0.0487503 14.951C0.0343474 14.9371 0.023061 14.9206 0.0155413 14.9025C0.00802191 14.8844 0.00441691 14.865 0.00493107 14.8456L0.00493167 14.8456C0.023233 13.9512 0.222831 13.0685 0.592933 12.2451C0.969666 11.404 1.51524 10.6399 2.19953 9.99476L2.19954 9.99475C2.88724 9.34317 3.68857 8.83283 4.58161 8.4769L4.58162 8.47691L4.58189 8.47678C4.58562 8.47501 4.58938 8.47368 4.59341 8.47225L4.5935 8.47222C4.59743 8.47083 4.60161 8.46935 4.60583 8.46735L4.60374 8.46294L4.60166 8.45852L4.59962 8.4542L4.60632 8.45879C3.36495 7.60973 2.55811 6.22996 2.55811 4.67337C2.55811 2.09466 4.76974 0.00488281 7.5 0.00488281C10.2303 0.00488281 12.4419 2.09466 12.4419 4.67337C12.4419 6.23003 11.635 7.60986 10.3935 8.45702L10.3963 8.46105L10.399 8.46509L10.4013 8.46846ZM10.4013 8.46846C10.399 8.46758 10.3966 8.46661 10.3942 8.46547L10.4017 8.46902L10.4013 8.46846ZM15 14.8455C15.0005 14.8656 14.9967 14.8856 14.989 14.9043C14.9812 14.9231 14.9695 14.9401 14.9546 14.9545C14.9398 14.9689 14.922 14.9804 14.9024 14.9882C14.8828 14.996 14.8617 15 14.8404 15H13.6436C13.5558 15 13.486 14.9359 13.484 14.853L15 14.8455ZM15 14.8455C14.98 13.9447 14.7825 13.0685 14.4115 12.2412C14.0353 11.3992 13.4892 10.6344 12.8038 9.98932C12.1205 9.34242 11.3111 8.82664 10.4202 8.47048L15 14.8455ZM5.07113 6.96837C5.72033 7.58169 6.58324 7.91946 7.5 7.91946C8.41676 7.91946 9.27967 7.58169 9.92887 6.96837C10.5781 6.35505 10.9357 5.53971 10.9357 4.67337C10.9357 3.80703 10.5781 2.99169 9.92887 2.37836C9.27967 1.76504 8.41676 1.42728 7.5 1.42728C6.58324 1.42728 5.72033 1.76504 5.07113 2.37836C4.42192 2.99169 4.06429 3.80703 4.06429 4.67337C4.06429 5.53971 4.42192 6.35505 5.07113 6.96837Z" fill="#666666" stroke="black" stroke-width="0.00976562"/>
</svg>
