<svg width="17" height="17" viewBox="0 0 17 17" fill="none" xmlns="http://www.w3.org/2000/svg">
<path d="M6.5 16C6.77614 16 7 15.7761 7 15.5C7 15.2239 6.77614 15 6.5 15C6.22386 15 6 15.2239 6 15.5C6 15.7761 6.22386 16 6.5 16Z" stroke="#666666" stroke-width="1.5" stroke-linecap="round" stroke-linejoin="round"/>
<path d="M14 16C14.5523 16 15 15.7761 15 15.5C15 15.2239 14.5523 15 14 15C13.4477 15 13 15.2239 13 15.5C13 15.7761 13.4477 16 14 16Z" stroke="#666666" stroke-width="1.5" stroke-linecap="round" stroke-linejoin="round"/>
<path d="M1 1H3.72727L5.55455 10.8191C5.61689 11.1567 5.78766 11.46 6.03696 11.6758C6.28626 11.8917 6.5982 12.0063 6.91818 11.9997H13.5455C13.8654 12.0063 14.1774 11.8917 14.4267 11.6758C14.676 11.46 14.8467 11.1567 14.9091 10.8191L16 4.66658H4.40909" stroke="#666666" stroke-width="1.5" stroke-linecap="round" stroke-linejoin="round"/>
</svg>
