<svg width="18" height="18" viewBox="0 0 18 18" fill="none" xmlns="http://www.w3.org/2000/svg">
<path d="M6.81828 16.8001C7.21994 16.8001 7.54555 16.4589 7.54555 16.0381C7.54555 15.6174 7.21994 15.2762 6.81828 15.2762C6.41661 15.2762 6.091 15.6174 6.091 16.0381C6.091 16.4589 6.41661 16.8001 6.81828 16.8001Z" stroke="#46ADC4" stroke-width="1.5" stroke-linecap="round" stroke-linejoin="round"/>
<path d="M14.8182 16.8001C15.2198 16.8001 15.5454 16.4589 15.5454 16.0381C15.5454 15.6174 15.2198 15.2762 14.8182 15.2762C14.4165 15.2762 14.0909 15.6174 14.0909 16.0381C14.0909 16.4589 14.4165 16.8001 14.8182 16.8001Z" stroke="#46ADC4" stroke-width="1.5" stroke-linecap="round" stroke-linejoin="round"/>
<path d="M1 0.800049H3.90909L5.85818 11.002C5.92469 11.3527 6.10684 11.6678 6.37276 11.8921C6.63868 12.1163 6.97142 12.2355 7.31273 12.2286H14.3818C14.7231 12.2355 15.0559 12.1163 15.3218 11.8921C15.5877 11.6678 15.7699 11.3527 15.8364 11.002L17 4.60957H4.63636" stroke="#46ADC4" stroke-width="1.5" stroke-linecap="round" stroke-linejoin="round"/>
</svg>
