<svg width="22" height="22" viewBox="0 0 22 22" fill="none" xmlns="http://www.w3.org/2000/svg">
<path d="M8.33341 21C8.7016 21 9.00008 20.7015 9.00008 20.3334C9.00008 19.9652 8.7016 19.6667 8.33341 19.6667C7.96522 19.6667 7.66675 19.9652 7.66675 20.3334C7.66675 20.7015 7.96522 21 8.33341 21Z" stroke="white" stroke-width="1.5" stroke-linecap="round" stroke-linejoin="round"/>
<path d="M17.665 20.9983C18.0323 20.9983 18.33 20.7002 18.33 20.3325C18.33 19.9648 18.0323 19.6667 17.665 19.6667C17.2977 19.6667 17 19.9648 17 20.3325C17 20.7002 17.2977 20.9983 17.665 20.9983Z" stroke="white" stroke-width="1.5" stroke-linecap="round" stroke-linejoin="round"/>
<path d="M1 1H4.63636L7.07273 14.0921C7.15586 14.5423 7.38355 14.9466 7.71595 15.2344C8.04835 15.5222 8.46427 15.6751 8.89091 15.6663H17.7273C18.1539 15.6751 18.5698 15.5222 18.9022 15.2344C19.2346 14.9466 19.4623 14.5423 19.5455 14.0921L21 5.88877H5.54545" stroke="white" stroke-width="1.5" stroke-linecap="round" stroke-linejoin="round"/>
</svg>
