<svg width="26" height="26" viewBox="0 0 26 26" fill="none" xmlns="http://www.w3.org/2000/svg">
<path d="M25.7753 10.478C25.7753 7.63907 24.5146 5.22034 21.9932 3.22186C19.4717 1.22337 16.4366 0.224129 12.8879 0.224129C9.3392 0.224129 6.30412 1.22337 3.78267 3.22186C1.26121 5.22034 0.000488281 7.63907 0.000488281 10.478C0.000488281 12.9061 0.962376 15.0633 2.88615 16.9498C4.80993 18.8362 7.22865 20.0409 10.1423 20.5638C9.99291 22.4689 9.60069 24.2807 8.96565 25.999C11.319 25.4013 13.6724 23.5522 16.0257 20.4518C18.8647 19.8915 21.1994 18.6868 23.0298 16.8377C24.8601 14.9886 25.7753 12.8687 25.7753 10.478ZM18.4351 16.8097C18.211 16.8844 18.0242 16.9217 17.8748 16.9217H16.8662C19.0701 15.3155 20.1721 13.1676 20.1721 10.478C20.1721 7.527 18.8647 5.26703 16.2498 3.69813C16.474 3.62342 16.8288 3.58607 17.3145 3.58607C19.0328 3.58607 20.499 4.23044 21.713 5.51918C22.927 6.80792 23.534 8.38616 23.534 10.2539C23.534 11.8975 23.0484 13.3357 22.0772 14.5684C21.106 15.8011 19.8919 16.5482 18.4351 16.8097Z" fill="#46ADC4"/>
</svg>
