<svg width="27" height="27" viewBox="0 0 27 27" fill="none" xmlns="http://www.w3.org/2000/svg">
<path d="M7.66668 14.9584C7.2799 14.9584 6.90897 14.8048 6.63548 14.5313C6.36199 14.2578 6.20834 13.8869 6.20834 13.5001C6.20834 13.1133 6.36199 12.7424 6.63548 12.4689C6.90897 12.1954 7.2799 12.0417 7.66668 12.0417C8.05345 12.0417 8.42438 12.1954 8.69787 12.4689C8.97136 12.7424 9.12501 13.1133 9.12501 13.5001C9.12501 13.8869 8.97136 14.2578 8.69787 14.5313C8.42438 14.8048 8.05345 14.9584 7.66668 14.9584Z" fill="#9BCDD8"/>
<path d="M7.66668 20.7917C7.2799 20.7917 6.90897 20.638 6.63548 20.3645C6.36199 20.091 6.20834 19.7201 6.20834 19.3333C6.20834 18.9466 6.36199 18.5756 6.63548 18.3021C6.90897 18.0286 7.2799 17.875 7.66668 17.875C8.05345 17.875 8.42438 18.0286 8.69787 18.3021C8.97136 18.5756 9.12501 18.9466 9.12501 19.3333C9.12501 19.7201 8.97136 20.091 8.69787 20.3645C8.42438 20.638 8.05345 20.7917 7.66668 20.7917Z" fill="#9BCDD8"/>
<path d="M12.0417 19.3333C12.0417 19.7201 12.1953 20.091 12.4688 20.3645C12.7423 20.638 13.1132 20.7917 13.5 20.7917C13.8868 20.7917 14.2577 20.638 14.5312 20.3645C14.8047 20.091 14.9583 19.7201 14.9583 19.3333C14.9583 18.9466 14.8047 18.5756 14.5312 18.3021C14.2577 18.0286 13.8868 17.875 13.5 17.875C13.1132 17.875 12.7423 18.0286 12.4688 18.3021C12.1953 18.5756 12.0417 18.9466 12.0417 19.3333Z" fill="#9BCDD8"/>
<path d="M19.3333 20.7917C18.9466 20.7917 18.5756 20.638 18.3021 20.3645C18.0286 20.091 17.875 19.7201 17.875 19.3333C17.875 18.9466 18.0286 18.5756 18.3021 18.3021C18.5756 18.0286 18.9466 17.875 19.3333 17.875C19.7201 17.875 20.091 18.0286 20.3645 18.3021C20.638 18.5756 20.7917 18.9466 20.7917 19.3333C20.7917 19.7201 20.638 20.091 20.3645 20.3645C20.091 20.638 19.7201 20.7917 19.3333 20.7917Z" fill="#9BCDD8"/>
<path d="M12.0417 13.5001C12.0417 13.8869 12.1953 14.2578 12.4688 14.5313C12.7423 14.8048 13.1132 14.9584 13.5 14.9584C13.8868 14.9584 14.2577 14.8048 14.5312 14.5313C14.8047 14.2578 14.9583 13.8869 14.9583 13.5001C14.9583 13.1133 14.8047 12.7424 14.5312 12.4689C14.2577 12.1954 13.8868 12.0417 13.5 12.0417C13.1132 12.0417 12.7423 12.1954 12.4688 12.4689C12.1953 12.7424 12.0417 13.1133 12.0417 13.5001Z" fill="#9BCDD8"/>
<path d="M19.3333 14.9584C18.9466 14.9584 18.5756 14.8048 18.3021 14.5313C18.0286 14.2578 17.875 13.8869 17.875 13.5001C17.875 13.1133 18.0286 12.7424 18.3021 12.4689C18.5756 12.1954 18.9466 12.0417 19.3333 12.0417C19.7201 12.0417 20.091 12.1954 20.3645 12.4689C20.638 12.7424 20.7917 13.1133 20.7917 13.5001C20.7917 13.8869 20.638 14.2578 20.3645 14.5313C20.091 14.8048 19.7201 14.9584 19.3333 14.9584Z" fill="#9BCDD8"/>
<path d="M7.66668 6.20825C7.2799 6.20825 6.90897 6.3619 6.63548 6.63539C6.36199 6.90888 6.20834 7.27981 6.20834 7.66659C6.20834 8.05336 6.36199 8.42429 6.63548 8.69778C6.90897 8.97127 7.2799 9.12492 7.66668 9.12492H19.3333C19.7201 9.12492 20.0911 8.97127 20.3645 8.69778C20.638 8.42429 20.7917 8.05336 20.7917 7.66659C20.7917 7.27981 20.638 6.90888 20.3645 6.63539C20.0911 6.3619 19.7201 6.20825 19.3333 6.20825H7.66668Z" fill="#9BCDD8"/>
<path fill-rule="evenodd" clip-rule="evenodd" d="M4.75 0.375C3.58968 0.375 2.47688 0.835936 1.65641 1.65641C0.835936 2.47688 0.375 3.58968 0.375 4.75V22.25C0.375 23.4103 0.835936 24.5231 1.65641 25.3436C2.47688 26.1641 3.58968 26.625 4.75 26.625H22.25C23.4103 26.625 24.5231 26.1641 25.3436 25.3436C26.1641 24.5231 26.625 23.4103 26.625 22.25V4.75C26.625 3.58968 26.1641 2.47688 25.3436 1.65641C24.5231 0.835936 23.4103 0.375 22.25 0.375H4.75ZM22.25 3.29167H4.75C4.36323 3.29167 3.99229 3.44531 3.7188 3.7188C3.44531 3.99229 3.29167 4.36323 3.29167 4.75V22.25C3.29167 22.6368 3.44531 23.0077 3.7188 23.2812C3.99229 23.5547 4.36323 23.7083 4.75 23.7083H22.25C22.6368 23.7083 23.0077 23.5547 23.2812 23.2812C23.5547 23.0077 23.7083 22.6368 23.7083 22.25V4.75C23.7083 4.36323 23.5547 3.99229 23.2812 3.7188C23.0077 3.44531 22.6368 3.29167 22.25 3.29167Z" fill="#9BCDD8"/>
</svg>
