<svg width="23" height="20" viewBox="0 0 23 20" fill="none" xmlns="http://www.w3.org/2000/svg">
<path d="M22.2827 2.82233C21.3194 0.916895 18.5446 -0.642099 15.317 0.265582C13.7746 0.69499 12.429 1.61587 11.4998 2.87776C10.5707 1.61587 9.22505 0.69499 7.68272 0.265582C4.44787 -0.628241 1.68027 0.916895 0.717005 2.82233C-0.634444 5.48994 -0.073736 8.49014 2.38475 11.7398C4.31128 14.2827 7.0645 16.8602 11.0613 19.8535C11.1876 19.9484 11.3432 20 11.5034 20C11.6636 20 11.8192 19.9484 11.9455 19.8535C15.9352 16.8671 18.6956 14.3104 20.6221 11.7398C23.0734 8.49014 23.6341 5.48994 22.2827 2.82233Z" fill="white"/>
</svg>
