<svg width="12" height="12" viewBox="0 0 12 12" fill="none" xmlns="http://www.w3.org/2000/svg">
<path d="M11.8824 0.352941H3.29412C3.22941 0.352941 3.17647 0.416471 3.17647 0.494118V1.48235C3.17647 1.56 3.22941 1.62353 3.29412 1.62353H11.8824C11.9471 1.62353 12 1.56 12 1.48235V0.494118C12 0.416471 11.9471 0.352941 11.8824 0.352941ZM11.8824 5.36471H3.29412C3.22941 5.36471 3.17647 5.42824 3.17647 5.50588V6.49412C3.17647 6.57176 3.22941 6.63529 3.29412 6.63529H11.8824C11.9471 6.63529 12 6.57176 12 6.49412V5.50588C12 5.42824 11.9471 5.36471 11.8824 5.36471ZM11.8824 10.3765H3.29412C3.22941 10.3765 3.17647 10.44 3.17647 10.5176V11.5059C3.17647 11.5835 3.22941 11.6471 3.29412 11.6471H11.8824C11.9471 11.6471 12 11.5835 12 11.5059V10.5176C12 10.44 11.9471 10.3765 11.8824 10.3765ZM0 0.988235C-1.61152e-09 1.11801 0.0213013 1.24652 0.0626875 1.36642C0.104074 1.48631 0.164734 1.59526 0.241206 1.68702C0.317678 1.77879 0.408463 1.85158 0.508378 1.90125C0.608294 1.95091 0.715382 1.97647 0.823529 1.97647C0.931677 1.97647 1.03877 1.95091 1.13868 1.90125C1.2386 1.85158 1.32938 1.77879 1.40585 1.68702C1.48232 1.59526 1.54299 1.48631 1.58437 1.36642C1.62576 1.24652 1.64706 1.11801 1.64706 0.988235C1.64706 0.858458 1.62576 0.729952 1.58437 0.610054C1.54299 0.490156 1.48232 0.381214 1.40585 0.289447C1.32938 0.197681 1.2386 0.124888 1.13868 0.0752248C1.03877 0.0255614 0.931677 0 0.823529 0C0.715382 0 0.608294 0.0255614 0.508378 0.0752248C0.408463 0.124888 0.317678 0.197681 0.241206 0.289447C0.164734 0.381214 0.104074 0.490156 0.0626875 0.610054C0.0213013 0.729952 -1.61152e-09 0.858458 0 0.988235ZM0 6C-1.61152e-09 6.12978 0.0213013 6.25828 0.0626875 6.37818C0.104074 6.49808 0.164734 6.60702 0.241206 6.69879C0.317678 6.79055 0.408463 6.86335 0.508378 6.91301C0.608294 6.96267 0.715382 6.98824 0.823529 6.98824C0.931677 6.98824 1.03877 6.96267 1.13868 6.91301C1.2386 6.86335 1.32938 6.79055 1.40585 6.69879C1.48232 6.60702 1.54299 6.49808 1.58437 6.37818C1.62576 6.25828 1.64706 6.12978 1.64706 6C1.64706 5.87022 1.62576 5.74172 1.58437 5.62182C1.54299 5.50192 1.48232 5.39298 1.40585 5.30121C1.32938 5.20945 1.2386 5.13665 1.13868 5.08699C1.03877 5.03733 0.931677 5.01177 0.823529 5.01177C0.715382 5.01177 0.608294 5.03733 0.508378 5.08699C0.408463 5.13665 0.317678 5.20945 0.241206 5.30121C0.164734 5.39298 0.104074 5.50192 0.0626875 5.62182C0.0213013 5.74172 -1.61152e-09 5.87022 0 6ZM0 11.0118C-1.61152e-09 11.1415 0.0213013 11.27 0.0626875 11.3899C0.104074 11.5098 0.164734 11.6188 0.241206 11.7106C0.317678 11.8023 0.408463 11.8751 0.508378 11.9248C0.608294 11.9744 0.715382 12 0.823529 12C0.931677 12 1.03877 11.9744 1.13868 11.9248C1.2386 11.8751 1.32938 11.8023 1.40585 11.7106C1.48232 11.6188 1.54299 11.5098 1.58437 11.3899C1.62576 11.27 1.64706 11.1415 1.64706 11.0118C1.64706 10.882 1.62576 10.7535 1.58437 10.6336C1.54299 10.5137 1.48232 10.4047 1.40585 10.313C1.32938 10.2212 1.2386 10.1484 1.13868 10.0988C1.03877 10.0491 0.931677 10.0235 0.823529 10.0235C0.715382 10.0235 0.608294 10.0491 0.508378 10.0988C0.408463 10.1484 0.317678 10.2212 0.241206 10.313C0.164734 10.4047 0.104074 10.5137 0.0626875 10.6336C0.0213013 10.7535 -1.61152e-09 10.882 0 11.0118Z" fill="#666666"/>
</svg>
