<svg width="26" height="26" viewBox="0 0 26 26" fill="none" xmlns="http://www.w3.org/2000/svg">
<path d="M10.1786 0C12.8781 0 15.4671 1.07238 17.3759 2.98123C19.2848 4.89009 20.3571 7.47905 20.3571 10.1786C20.3571 12.4093 19.6393 14.4718 18.4232 16.1496L25.2439 22.9704C25.5388 23.261 25.7102 23.6542 25.7223 24.068C25.7345 24.4819 25.5864 24.8845 25.309 25.1919C25.0316 25.4992 24.6463 25.6877 24.2334 25.7179C23.8204 25.7482 23.4117 25.6179 23.0925 25.3543L22.9704 25.2439L16.1496 18.4232C14.4141 19.6835 12.3234 20.3607 10.1786 20.3571C7.47905 20.3571 4.89009 19.2848 2.98123 17.3759C1.07238 15.4671 0 12.8781 0 10.1786C0 7.47905 1.07238 4.89009 2.98123 2.98123C4.89009 1.07238 7.47905 4.02261e-08 10.1786 0ZM10.1786 3.21429C8.33153 3.21429 6.56013 3.94802 5.25408 5.25408C3.94802 6.56013 3.21429 8.33153 3.21429 10.1786C3.21429 12.0256 3.94802 13.797 5.25408 15.1031C6.56013 16.4091 8.33153 17.1429 10.1786 17.1429C12.0256 17.1429 13.797 16.4091 15.1031 15.1031C16.4091 13.797 17.1429 12.0256 17.1429 10.1786C17.1429 8.33153 16.4091 6.56013 15.1031 5.25408C13.797 3.94802 12.0256 3.21429 10.1786 3.21429Z" fill="#9BCDD8"/>
</svg>
