<svg width="19" height="19" viewBox="0 0 19 19" fill="none" xmlns="http://www.w3.org/2000/svg">
<path fill-rule="evenodd" clip-rule="evenodd" d="M9.76465 17.4084C11.8532 17.4084 13.8563 16.5788 15.3331 15.1019C16.81 13.6251 17.6396 11.622 17.6396 9.53345C17.6396 7.44487 16.81 5.44183 15.3331 3.96498C13.8563 2.48813 11.8532 1.65845 9.76465 1.65845C7.67607 1.65845 5.67303 2.48813 4.19618 3.96498C2.71933 5.44183 1.88965 7.44487 1.88965 9.53345C1.88965 11.622 2.71933 13.6251 4.19618 15.1019C5.67303 16.5788 7.67607 17.4084 9.76465 17.4084ZM9.76465 18.5334C12.1516 18.5334 14.4408 17.5852 16.1286 15.8974C17.8164 14.2096 18.7646 11.9204 18.7646 9.53345C18.7646 7.1465 17.8164 4.85731 16.1286 3.16949C14.4408 1.48166 12.1516 0.533447 9.76465 0.533447C7.3777 0.533447 5.08851 1.48166 3.40069 3.16949C1.71286 4.85731 0.764648 7.1465 0.764648 9.53345C0.764648 11.9204 1.71286 14.2096 3.40069 15.8974C5.08851 17.5852 7.3777 18.5334 9.76465 18.5334Z" fill="white"/>
<path fill-rule="evenodd" clip-rule="evenodd" d="M5.99143 9.93173C6.04368 9.98411 6.10575 10.0257 6.17409 10.054C6.24243 10.0824 6.31569 10.097 6.38968 10.097C6.46367 10.097 6.53693 10.0824 6.60527 10.054C6.6736 10.0257 6.73568 9.98411 6.78793 9.93173L9.76468 6.95385L12.7414 9.93173C12.8471 10.0373 12.9903 10.0967 13.1397 10.0967C13.2891 10.0967 13.4323 10.0373 13.5379 9.93173C13.6436 9.8261 13.7029 9.68285 13.7029 9.53348C13.7029 9.3841 13.6436 9.24085 13.5379 9.13523L10.1629 5.76023C10.1107 5.70784 10.0486 5.66628 9.98027 5.63792C9.91193 5.60957 9.83867 5.59497 9.76468 5.59497C9.69069 5.59497 9.61743 5.60957 9.54909 5.63792C9.48075 5.66628 9.41868 5.70784 9.36643 5.76023L5.99143 9.13523C5.93904 9.18748 5.89748 9.24955 5.86913 9.31789C5.84077 9.38623 5.82617 9.45949 5.82617 9.53348C5.82617 9.60746 5.84077 9.68073 5.86913 9.74906C5.89748 9.8174 5.93904 9.87947 5.99143 9.93173Z" fill="white"/>
<path fill-rule="evenodd" clip-rule="evenodd" d="M9.76465 13.4709C9.91383 13.4709 10.0569 13.4117 10.1624 13.3062C10.2679 13.2007 10.3271 13.0576 10.3271 12.9084V7.28345C10.3271 7.13426 10.2679 6.99119 10.1624 6.8857C10.0569 6.78021 9.91383 6.72095 9.76465 6.72095C9.61546 6.72095 9.47239 6.78021 9.3669 6.8857C9.26141 6.99119 9.20215 7.13426 9.20215 7.28345V12.9084C9.20215 13.0576 9.26141 13.2007 9.3669 13.3062C9.47239 13.4117 9.61546 13.4709 9.76465 13.4709Z" fill="white"/>
</svg>
